<?xml version="1.0" ?><svg id="Flat" viewBox="0 0 512 512" xmlns="http://www.w3.org/2000/svg"><defs><style>.cls-1{fill:#ffebd2;}.cls-2{fill:#ffdfba;}.cls-3{fill:#d6f4fc;}.cls-4{fill:#42434d;}.cls-5{fill:#e8f8fc;}.cls-6{fill:#bdeffc;}.cls-7{fill:#4d4e59;}.cls-8{fill:#fff3e4;}</style></defs><title/><g data-name="29. Man doctor" id="_29._Man_doctor"><path class="cls-1" d="M410,440.74V472a16,16,0,0,1-16,16H118a16,16,0,0,1-16-16V440.74a74.57,74.57,0,0,1,74.57-74.57A41.36,41.36,0,0,0,218,324.83V318l.15-.37c2.49,1,5,2,7.63,2.79C187.05,307.84,157,271.79,157,226.13V223a24.66,24.66,0,0,1-25-24.54V101a27,27,0,0,1,27-27,79.55,79.55,0,0,1,73.85-50h68.61A79.54,79.54,0,0,1,381,103.54V197a26,26,0,0,1-26,26v3.13a99,99,0,0,1-61.15,91.5l.15.37c0,7.16-1.55,24.42,14.33,38.11,13.34,11.47,26.85,9.83,32.67,10.27A74.57,74.57,0,0,1,410,440.74Z"/><path class="cls-2" d="M295.13,334.42a99.3,99.3,0,0,1-78.26,0c1.36-5.63,1.13-9.27,1.13-16.42l.15-.37a99.17,99.17,0,0,0,75.7,0l.15.37C294,325.15,293.77,328.8,295.13,334.42Z"/><path class="cls-3" d="M410,440.74V472a16,16,0,0,1-16,16H118a16,16,0,0,1-16-16V440.74a74.57,74.57,0,0,1,74.57-74.57,41.44,41.44,0,0,0,27.1-10.06l37.78,28.8a24,24,0,0,0,29.1,0l37.78-28.8c13.3,11.43,26.66,9.81,32.67,10.27A74.57,74.57,0,0,1,410,440.74Z"/><path class="cls-4" d="M381,103.54V197a26,26,0,0,1-26,26V161.23a48,48,0,0,0-48-48H205a48,48,0,0,0-48,48V223a24.66,24.66,0,0,1-25-24.54V101a27,27,0,0,1,27-27,79.55,79.55,0,0,1,73.85-50h68.61A79.54,79.54,0,0,1,381,103.54Z"/><path class="cls-5" d="M204.48,387.17c-41.34-.09-74.48,34.4-74.48,75.74v9.17c0,18-28,19.54-28-.08V440.74a74.57,74.57,0,0,1,74.57-74.57,41.39,41.39,0,0,0,27.1-10.06l9.69,7.38C222.85,370.73,219.1,387.2,204.48,387.17Z"/><path class="cls-6" d="M307.52,387.17c41.34-.09,74.48,34.4,74.48,75.74v9.17c0,18,28,19.54,28-.08V440.74a74.57,74.57,0,0,0-74.57-74.57,41.39,41.39,0,0,1-27.1-10.06l-9.69,7.38C289.15,370.73,292.9,387.2,307.52,387.17Z"/><path class="cls-7" d="M376,451.7V480a8,8,0,0,1-16,0V451.59c0-16.16-12.69-27.92-27.63-27.58-14.76.33-26.37,12.81-26.37,27.58V480a8,8,0,0,1-16,0V451a43.06,43.06,0,0,1,35-42.24V366.1a8,8,0,0,1,8.72-8,8.19,8.19,0,0,1,7.28,8.25v42.37C360.81,412.46,376,429.68,376,451.7Z"/><path class="cls-7" d="M187,409.09v-43a8,8,0,0,0-16,0v43a30,30,0,1,0,16,0ZM179,452a14,14,0,1,1,14-14A14,14,0,0,1,179,452Z"/><path class="cls-8" d="M233.58,290.06c16.28,10.18,3.45,35.15-14.37,28A99,99,0,0,1,157,226.13v-64.9a47.83,47.83,0,0,1,8.42-27.17c6.66-9.68,21.65-4.88,21.58,6.87v65.2A98.29,98.29,0,0,0,233.58,290.06Z"/><path class="cls-7" d="M337.15,32.44C348,37.87,344,54.06,331.89,54h-69a79.54,79.54,0,0,0-71.48,44.66,11,11,0,0,1-7.81,5.89A27,27,0,0,0,162,131v8.88a47.79,47.79,0,0,0-5,21.35v44.5c0,11.09-14.37,15.71-20.68,6.58A24.39,24.39,0,0,1,132,198.46V101a27,27,0,0,1,27-27,79.55,79.55,0,0,1,73.85-50h68.61A79.19,79.19,0,0,1,337.15,32.44Z"/></g></svg>